<svg id="Layer_1" data-name="Layer 1" xmlns="http://www.w3.org/2000/svg" viewBox="0 0 130 25"><defs><style>.cls-1{fill:#fff;}</style></defs><title>Untitled-2</title><rect class="cls-1" x="13.29" y="16.46" width="2.06" height="8.17"/><path class="cls-1" d="M32,18.8a3.64,3.64,0,0,0-1.73-.44,2.18,2.18,0,1,0,0,4.36A3.63,3.63,0,0,0,32,22.29v2.19a6.53,6.53,0,0,1-1.88.29,4.23,4.23,0,1,1,0-8.46,6.29,6.29,0,0,1,1.88.29Z"/><path class="cls-1" d="M10.46,18.8a3.59,3.59,0,0,0-1.73-.44,2.18,2.18,0,1,0,0,4.36,3.59,3.59,0,0,0,1.73-.43v2.19a6.49,6.49,0,0,1-1.88.29,4.23,4.23,0,1,1,0-8.46,6.23,6.23,0,0,1,1.88.29Z"/><path class="cls-1" d="M38.45,18.4a2.15,2.15,0,1,0,2.13,2.15,2.11,2.11,0,0,0-2.13-2.15m4.31,2.15a4.31,4.31,0,1,1-4.31-4.23,4.2,4.2,0,0,1,4.31,4.23"/><path class="cls-1" d="M23.17,18.32a7.05,7.05,0,0,0-1.61-.25c-.83,0-1.27.27-1.27.67s.6.67.94.78l.57.18A2.46,2.46,0,0,1,23.74,22c0,2.05-1.81,2.74-3.38,2.74a12.56,12.56,0,0,1-2.22-.22V22.67a7.73,7.73,0,0,0,1.95.31c1,0,1.5-.3,1.5-.77s-.41-.65-.92-.81l-.44-.14c-1.15-.36-2.1-1-2.1-2.39,0-1.53,1.14-2.55,3-2.55a8.91,8.91,0,0,1,2,.26Z"/><path class="cls-1" d="M2,7.68a1,1,0,0,0-2,0V9.83a1,1,0,1,0,2,0Z"/><path class="cls-1" d="M7.66,4.87a1,1,0,0,0-2,0v5a1,1,0,0,0,2,0Z"/><path class="cls-1" d="M13.28,1a1,1,0,0,0-2,0V11.87a1,1,0,1,0,2,0Z"/><path class="cls-1" d="M18.9,4.87a1,1,0,0,0-2,0v5a1,1,0,1,0,2,0Z"/><path class="cls-1" d="M24.52,7.68a1,1,0,0,0-2,0V9.83a1,1,0,1,0,2,0Z"/><path class="cls-1" d="M30.14,4.87a1,1,0,0,0-2,0v5a1,1,0,1,0,2,0Z"/><path class="cls-1" d="M35.77,1a1,1,0,1,0-2,0V11.87a1,1,0,1,0,2,0Z"/><path class="cls-1" d="M41.39,4.87a1,1,0,0,0-2.06,0v5a1,1,0,0,0,2.06,0Z"/><path class="cls-1" d="M47,7.68a1,1,0,0,0-2,0V9.83a1,1,0,1,0,2,0Z"/><path class="cls-1" d="M68.43,24.64,62.06,8.9V24.64H60.73V7.13h2l6.44,16,6.08-16h1.95V24.64H75.9V9l-6,15.61Z"/><path class="cls-1" d="M91.28,21.18A5.11,5.11,0,0,1,86,25c-3.43,0-6-2.36-6-6.69s2.5-6.69,5.76-6.69,5.71,2.19,5.71,7H81.36c.12,3.6,2.16,5.25,4.69,5.25a3.77,3.77,0,0,0,3.84-2.7Zm-9.9-3.65h8.75c-.17-3.24-2-4.84-4.35-4.84S81.63,14.37,81.38,17.54Z"/><path class="cls-1" d="M94.57,24.64V12h1.07l.19,2.43a3.67,3.67,0,0,1,3.55-2.8,4.51,4.51,0,0,1,1.31.2v1.29a4.93,4.93,0,0,0-1.39-.22c-1.85,0-3.43,1.8-3.43,4.84v6.91Z"/><path class="cls-1" d="M102.35,15.28c.19-2.16,2.12-3.65,4.91-3.65S112,13.21,112,15.79v8.85h-1.07l-.19-2.09A5,5,0,0,1,106.22,25c-2.46,0-4.23-1.33-4.23-3.57s1.31-3.48,4.86-4.06l3.79-.63v-1.1c0-1.82-1.29-2.94-3.45-2.94s-3.31,1-3.48,2.58Zm8.29,4.86V17.78l-3.4.58c-3,.51-3.89,1.46-3.89,3,0,1.7,1.31,2.55,3.21,2.55A4,4,0,0,0,110.64,20.14Z"/><path class="cls-1" d="M115.32,24.64V7.13h1.31v10L122.69,12h1.78L118,17.51l7.3,7.12h-1.77L116.63,18v6.69Z"/><path class="cls-1" d="M126.92,8.93V7.13h1.58v1.8ZM127,24.64V12h1.31V24.64Z"/></svg>